<?xml version="1.0" encoding="utf-8"?>
<!-- Generator: Adobe Illustrator 15.0.0, SVG Export Plug-In . SVG Version: 6.00 Build 0)  -->
<!DOCTYPE svg PUBLIC "-//W3C//DTD SVG 1.1//EN" "http://www.w3.org/Graphics/SVG/1.1/DTD/svg11.dtd">
<svg version="1.1" id="图层_1" xmlns="http://www.w3.org/2000/svg" xmlns:xlink="http://www.w3.org/1999/xlink" x="0px" y="0px"
	 width="45px" height="45px" viewBox="0 0 45 45" enable-background="new 0 0 45 45" xml:space="preserve">
<g>
	<g transform="scale(0.1953125, 0.1953125)">
		<path fill="#272635" d="M114.352,0C51.172,0,0,51.175,0,114.352c0,63.172,51.172,114.347,114.352,114.347
			c63.172,0,114.347-51.175,114.347-114.347C228.699,51.175,177.525,0,114.352,0z M114.352,165.805
			c-28.417,0-51.462-23.035-51.462-51.452s23.045-51.46,51.462-51.46s51.452,23.042,51.452,51.46S142.77,165.805,114.352,165.805z
			 M114.352,102.915c-6.292,0-11.437,5.145-11.437,11.437c0,6.287,5.145,11.432,11.437,11.432c6.287,0,11.432-5.145,11.432-11.432
			C125.785,108.06,120.64,102.915,114.352,102.915z"/>
	</g>
</g>
</svg>
