<?xml version="1.0" encoding="utf-8"?>
<!-- Generator: Adobe Illustrator 15.0.0, SVG Export Plug-In . SVG Version: 6.00 Build 0)  -->
<!DOCTYPE svg PUBLIC "-//W3C//DTD SVG 1.1//EN" "http://www.w3.org/Graphics/SVG/1.1/DTD/svg11.dtd">
<svg version="1.1" xmlns="http://www.w3.org/2000/svg" xmlns:xlink="http://www.w3.org/1999/xlink" x="0px" y="0px" width="90px"
	 height="90px" viewBox="0 0 90 90" enable-background="new 0 0 90 90" xml:space="preserve">
<g id="图层_2">
	<circle fill="none" stroke="#FFFFFF" stroke-width="3" stroke-miterlimit="10" cx="44.75" cy="45.25" r="42.75"/>
</g>
<g id="图层_3" display="none">
	<g display="inline">
		<path fill="none" stroke="#FFFFFF" stroke-width="3" stroke-linecap="round" stroke-miterlimit="10" d="M23.254,62.961
			c-3.995-4.605-6.414-10.617-6.414-17.193c0-7.081,2.804-13.506,7.361-18.228"/>
		<path fill="none" stroke="#FFFFFF" stroke-width="3" stroke-linecap="round" stroke-miterlimit="10" d="M32.547,56.936
			c-2.805-3.233-4.503-7.455-4.503-12.072c0-4.971,1.968-9.483,5.168-12.798"/>
	</g>
	<g display="inline">
		<path fill="none" stroke="#FFFFFF" stroke-width="3" stroke-linecap="round" stroke-miterlimit="10" d="M67.131,63.211
			c3.995-4.605,6.414-10.617,6.414-17.193c0-7.081-2.804-13.506-7.361-18.228"/>
		<path fill="none" stroke="#FFFFFF" stroke-width="3" stroke-linecap="round" stroke-miterlimit="10" d="M57.838,57.186
			c2.805-3.233,4.503-7.455,4.503-12.072c0-4.971-1.968-9.483-5.168-12.798"/>
	</g>
	<circle display="inline" fill="none" stroke="#FFFFFF" stroke-width="3" stroke-miterlimit="10" cx="46.752" cy="44.5" r="5.5"/>
</g>
<g id="图层_4" display="none">
	<circle display="inline" fill="none" stroke="#FFFFFF" stroke-width="3" stroke-miterlimit="10" cx="44.75" cy="24.789" r="5.84"/>
	<circle display="inline" fill="none" stroke="#FFFFFF" stroke-width="3" stroke-miterlimit="10" cx="44.75" cy="60.384" r="5.84"/>
	
		<circle display="inline" fill="none" stroke="#FFFFFF" stroke-width="3" stroke-miterlimit="10" cx="65.878" cy="60.384" r="5.84"/>
	<path display="inline" fill="none" stroke="#FFFFFF" stroke-width="3" stroke-miterlimit="10" d="M29.026,61.383
		c0,0.56-2.613,5.842-5.84,5.842c-3.226,0-5.841-2.615-5.841-5.84c0-3.227,2.613-5.842,5.839-5.842S29.026,58.158,29.026,61.383z"/>
	
		<line display="inline" fill="none" stroke="#FFFFFF" stroke-width="3" stroke-miterlimit="10" x1="44.75" y1="30.63" x2="44.748" y2="55.543"/>
	<g display="inline">
		<path fill="none" stroke="#FFFFFF" stroke-width="3" stroke-miterlimit="10" d="M23.186,55.543V47c0-4.4,3.6-8,8-8H59
			c4.4,0,8,3.263,8,7.25s0,7.25,0,7.25"/>
	</g>
</g>
<g id="图层_5">
	<circle fill="none" stroke="#FFFFFF" stroke-width="3" stroke-miterlimit="10" cx="44.75" cy="35" r="13.25"/>
	<g>
		<polyline fill="none" stroke="#FFFFFF" stroke-width="3" stroke-miterlimit="10" points="35.068,44 25.808,62.995 33.632,62.163 
			38.677,68.218 44.328,49.045 		"/>
		<polyline fill="none" stroke="#FFFFFF" stroke-width="3" stroke-miterlimit="10" points="53.408,44.807 62.669,63.803 
			54.845,62.971 49.8,69.024 44.148,49.853 		"/>
	</g>
</g>
</svg>
