<?xml version="1.0" encoding="utf-8"?>
<!-- Generator: Adobe Illustrator 15.0.0, SVG Export Plug-In . SVG Version: 6.00 Build 0)  -->
<!DOCTYPE svg PUBLIC "-//W3C//DTD SVG 1.1//EN" "http://www.w3.org/Graphics/SVG/1.1/DTD/svg11.dtd">
<svg version="1.1" id="图层_1" xmlns="http://www.w3.org/2000/svg" xmlns:xlink="http://www.w3.org/1999/xlink" x="0px" y="0px"
	 width="45px" height="45px" viewBox="0 0 45 45" enable-background="new 0 0 45 45" xml:space="preserve">
<g>
	<g transform="scale(0.1953125, 0.1953125)">
		<path fill="#272635" d="M225.184,230.399c-3.395-15.955-9.845-42.945-9.845-42.945s-3.45-16.73-8.905-22.435
			c-9.435-9.845-68.04-18.145-70.34-35.805c-0.63-4.795-0.815-13.205-0.64-15.25c4.795-4.327,8.685-9.922,9.615-11.522
			c1.165-2.01,3.56-7.632,5.38-14.62c3.03-0.365,5.785-5.987,7.81-12.177c2.17-6.66,0.525-12.5-2.55-13.58
			c2.105-8.835,3.875-23.247-1.29-34.612c-2.34-5.155,3.05-15.527-6.73-26.842c-8.385,12.587-33.142-7.532-52.237,2.1
			c-7.862,3.965-11.13,9.852-12.31,15.6c-6.297,5.057-7.83,11.485-8.66,15.432c-2.167,10.26-2.497,19.277,0.31,28.647
			c-2.592,1.687-3.795,7.147-1.81,13.255c2.02,6.19,4.78,11.812,7.81,12.177c1.822,6.987,4.22,12.61,5.387,14.62
			c0.993,1.707,5.345,7.977,10.602,12.4h0.222c-0.005,3.447-0.228,10.772-0.695,14.372c-2.307,17.66-61.22,25.645-70.34,35.815
			c-4.92,5.48-18.085,54.005-20.85,65.37H225.184L225.184,230.399z"/>
	</g>
</g>
</svg>
