<?xml version="1.0" encoding="utf-8"?>
<!-- Generator: Adobe Illustrator 15.0.0, SVG Export Plug-In . SVG Version: 6.00 Build 0)  -->
<!DOCTYPE svg PUBLIC "-//W3C//DTD SVG 1.1//EN" "http://www.w3.org/Graphics/SVG/1.1/DTD/svg11.dtd">
<svg version="1.1" id="图层_1" xmlns="http://www.w3.org/2000/svg" xmlns:xlink="http://www.w3.org/1999/xlink" x="0px" y="0px"
	 width="45px" height="45px" viewBox="0 0 45 45" enable-background="new 0 0 45 45" xml:space="preserve">
<g>
	<g transform="scale(0.1953125, 0.1953125)">
		<path fill="#272635" d="M156.355,0H81.137C65.507,0,52.91,12.032,52.91,26.94v14.19h78.15v19.025H52.91v22.107h78.15v19.025H52.91
			v22.107h78.15v19.025H52.91v21.49c0,14.91,12.597,26.835,28.227,26.835H96.61v39.595h44.22v-39.595h15.525
			c15.58,0,28.18-11.925,28.18-26.835v-21.49h-30.34v-19.025h30.34v-22.107h-30.34V82.262h30.34V60.155h-30.34V41.13h30.34V26.94
			C184.535,12.032,171.935,0,156.355,0z"/>
	</g>
</g>
</svg>
