<?xml version="1.0" encoding="utf-8"?>
<!-- Generator: Adobe Illustrator 15.0.0, SVG Export Plug-In . SVG Version: 6.00 Build 0)  -->
<!DOCTYPE svg PUBLIC "-//W3C//DTD SVG 1.1//EN" "http://www.w3.org/Graphics/SVG/1.1/DTD/svg11.dtd">
<svg version="1.1" id="图层_1" xmlns="http://www.w3.org/2000/svg" xmlns:xlink="http://www.w3.org/1999/xlink" x="0px" y="0px"
	 width="45px" height="45px" viewBox="0 0 45 45" enable-background="new 0 0 45 45" xml:space="preserve">
<g>
	<g transform="scale(0.1953125, 0.1953125)">
		<path fill="#272635" d="M73.177,24.955c4.217,0,7.5,1.402,10.315,4.217s4.217,6.097,4.217,10.32v58.63
			c0,4.222-1.402,7.505-4.217,10.32c-2.815,2.815-6.565,4.222-10.315,4.222h-58.64c-4.217,0-7.505-1.407-10.315-4.222
			C1.407,105.632,0,101.877,0,98.122v-58.63c0-4.222,1.407-7.505,4.222-10.32c2.81-2.815,6.097-4.217,10.315-4.217H73.177
			L73.177,24.955L73.177,24.955z M73.177,142.22c4.217,0,7.5,1.405,10.315,4.215c2.815,2.815,4.217,6.105,4.217,10.32v59.1
			c0,4.225-1.402,7.505-4.217,10.32c-2.815,2.815-6.565,4.225-10.315,4.225h-58.64c-4.217,0-7.505-1.41-10.315-4.225
			C1.407,223.359,0,220.079,0,215.854v-59.1c0-4.215,1.407-7.505,4.222-10.32c2.81-2.81,6.097-4.215,10.315-4.215H73.177
			L73.177,142.22z M190.44,142.22c4.215,0,7.505,1.405,10.315,4.215c2.82,2.815,4.22,6.105,4.22,10.32v59.1
			c0,4.225-1.4,7.505-4.22,10.32c-2.81,2.815-6.1,4.225-10.315,4.225h-58.635c-4.22,0-7.5-1.41-10.32-4.225
			c-2.815-2.815-4.215-6.095-4.215-10.32v-59.1c0-4.215,1.4-7.505,4.215-10.32c2.82-2.81,6.565-4.215,10.32-4.215H190.44
			L190.44,142.22z M219.519,50.752c3.28,3.277,4.69,7.032,4.69,10.787c0,4.22-1.41,7.975-4.69,10.79l-43.625,43.617
			c-3.28,3.287-6.565,4.692-10.785,4.692c-4.22,0-7.975-1.405-10.79-4.692L110.697,72.33c-2.815-2.815-4.69-6.57-4.69-10.79
			c0-4.222,1.407-7.977,4.69-10.787L154.32,7.125c3.285-2.81,6.57-4.685,10.79-4.685c4.22,0,7.97,1.402,10.785,4.685L219.519,50.752
			L219.519,50.752z"/>
	</g>
</g>
</svg>
