<?xml version="1.0" encoding="utf-8"?>
<!-- Generator: Adobe Illustrator 15.0.0, SVG Export Plug-In . SVG Version: 6.00 Build 0)  -->
<!DOCTYPE svg PUBLIC "-//W3C//DTD SVG 1.1//EN" "http://www.w3.org/Graphics/SVG/1.1/DTD/svg11.dtd">
<svg version="1.1" id="图层_1" xmlns="http://www.w3.org/2000/svg" xmlns:xlink="http://www.w3.org/1999/xlink" x="0px" y="0px"
	 width="45px" height="45px" viewBox="0 0 45 45" enable-background="new 0 0 45 45" xml:space="preserve">
<g>
	<g transform="scale(0.1953125, 0.1953125)">
		<path fill="#272635" d="M23,172.48h185.835v13.855H23V172.48z M29.977,193.465h171.852v18.74H29.977V193.465z M29.977,187H43.21
			v5.635H29.977V187z M52.672,187h13.232v5.635H52.672V187z M75.172,187h13.24v5.635h-13.24V187z M97.665,187h13.217v5.635H97.665
			V187z M120.55,187h13.245v5.635H120.55V187z M143.035,187h13.23v5.635h-13.23V187z M165.56,187h13.215v5.635H165.56V187z
			 M188.595,187h13.25v5.635h-13.25V187z M118.78,54.752l-0.485,114.037h43.98c0.405-0.375,20.4-19.685,22.43-61.73
			c1.87-39.38-36.13-59.97-36.52-60.175l0.075-0.127C136.365,49.772,125.265,53.432,118.78,54.752z M45.562,107.042
			c2.032,42.237,23.81,61.532,24.012,61.707l43.965,0.03l0.463-113.58c-8.227-1.002-18.762-4.367-31.165-8.72
			C79.355,48.437,43.75,69.48,45.562,107.042z M227.709,88.76c-3.72-22.725-23.21-43.28-45.485-46.125
			c-7.905-1.015-17.805,0.405-27.61,2.612c10.405,6.932,36.52,27.845,34.865,62.042c-1.65,34.47-14.62,54.075-20.79,61.5h41.525
			C210.229,168.79,234.079,127.59,227.709,88.76z M40.787,107.275C39.12,72.682,66.645,51.265,77.065,44.42
			c-3.457-1.22-6.982-2.482-10.71-3.8c-19.877-7.052-41.395,4.162-49.027,12.405c-41.382,44.557,4.367,115.765,4.367,115.765h41.262
			C56.327,161.29,42.442,141.675,40.787,107.275z M99.655,32.45c0,9.437,7.65,17.092,17.09,17.092s17.095-7.655,17.095-17.092
			c0-9.44-7.655-17.092-17.095-17.092S99.655,23.01,99.655,32.45z"/>
	</g>
</g>
</svg>
